<svg width="62" height="54" viewBox="0 0 62 54" fill="none" xmlns="http://www.w3.org/2000/svg">
<g id="filter_drama_24px">
<path id="icon/image/filter_drama_24px" fill-rule="evenodd" clip-rule="evenodd" d="M40 12C46.6733 12 52.2283 16.8562 53.475 23.325C58.2417 23.6625 62 27.675 62 32.625C62 37.8 57.8933 42 52.8333 42H29C22.9317 42 18 36.9562 18 30.75C18 24.9375 22.3083 20.175 27.8267 19.575C30.1183 15.075 34.7017 12 40 12ZM29 38.25H52.8333C55.8583 38.25 58.3333 35.7188 58.3333 32.625C58.3333 29.5312 55.8583 27 52.8333 27H50.0833V26.0625C50.0833 20.3813 45.555 15.75 40 15.75C36.7 15.75 33.785 17.4 31.9333 19.9125C36.59 21.225 40 25.575 40 30.75H36.3333C36.3333 26.6062 33.0517 23.25 29 23.25C24.9483 23.25 21.6667 26.6062 21.6667 30.75C21.6667 34.8937 24.9483 38.25 29 38.25Z" fill="white"/>
</g>
</svg>
